<?xml version="1.0" standalone="no"?><!DOCTYPE svg PUBLIC "-//W3C//DTD SVG 1.1//EN" "http://www.w3.org/Graphics/SVG/1.1/DTD/svg11.dtd"><svg class="icon" width="200px" height="200.00px" viewBox="0 0 1024 1024" version="1.1" xmlns="http://www.w3.org/2000/svg"><path d="M563.16531 921.322479l-102.33062 0c-14.68956 0-27.714202-9.393951-32.361035-23.317055l-29.1806-87.557148-18.621103-7.711636-82.543971 41.271986c-13.19144 6.578836-29.013801 3.946892-39.373753-6.395664l-72.367191-72.367191c-10.376325-10.376325-12.958126-26.232454-6.395664-39.373753l41.271986-82.543971-7.711636-18.621103-87.557148-29.1806c-13.924127-4.646833-23.317055-17.671475-23.317055-32.361035l0-102.33062c0-14.68956 9.393951-27.714202 23.317055-32.361035l87.557148-29.1806 7.711636-18.621103-41.271986-82.543971c-6.562463-13.141298-3.980661-28.997428 6.395664-39.373753l72.367191-72.367191c10.359952-10.376325 26.215058-12.958126 39.373753-6.395664l82.543971 41.271986 18.621103-7.711636 29.1806-87.557148c4.646833-13.924127 17.671475-23.317055 32.361035-23.317055l102.33062 0c14.68956 0 27.714202 9.393951 32.361035 23.317055l29.1806 87.557148 18.621103 7.711636 82.543971-41.271986c13.174044-6.578836 29.013801-3.964288 39.373753 6.395664l72.367191 72.367191c10.376325 10.376325 12.958126 26.232454 6.395664 39.373753l-41.271986 82.543971 7.711636 18.621103 87.557148 29.1806c13.924127 4.646833 23.317055 17.671475 23.317055 32.361035l0 102.33062c0 14.68956-9.393951 27.714202-23.317055 32.361035l-87.557148 29.1806-7.711636 18.621103 41.271986 82.543971c6.562463 13.141298 3.980661 28.997428-6.395664 39.373753l-72.367191 72.367191c-10.376325 10.359952-26.282596 12.907984-39.373753 6.395664l-82.543971-41.271986-18.621103 7.711636-29.1806 87.557148C590.879512 911.928528 577.85487 921.322479 563.16531 921.322479zM485.417575 853.101725l53.163827 0 26.331715-79.013565c3.131317-9.376555 10.17678-16.938788 19.320021-20.718881l47.384194-19.61985c9.126868-3.781116 19.436678-3.414773 28.297486 0.99977l74.482365 37.241182 37.591153-37.591153-37.241182-74.482365c-4.41352-8.844435-4.779863-19.170618-0.99977-28.297486l19.61985-47.384194c3.781116-9.144264 11.342326-16.188704 20.718881-19.320021l79.013565-26.331715 0-53.163827-79.013565-26.331715c-9.376555-3.131317-16.938788-10.17678-20.718881-19.320021l-19.61985-47.384194c-3.781116-9.126868-3.414773-19.453051 0.99977-28.297486l37.241182-74.482365-37.591153-37.591153-74.482365 37.241182c-8.860808 4.41352-19.186991 4.76349-28.297486 0.99977l-47.384194-19.61985c-9.144264-3.781116-16.188704-11.342326-19.320021-20.718881l-26.331715-79.013565-53.163827 0-26.331715 79.013565c-3.131317 9.376555-10.17678 16.938788-19.320021 20.718881l-47.384194 19.61985c-9.110495 3.781116-19.436678 3.414773-28.297486-0.99977l-74.482365-37.241182-37.591153 37.591153 37.241182 74.482365c4.41352 8.844435 4.779863 19.170618 0.99977 28.297486l-19.61985 47.384194c-3.781116 9.144264-11.342326 16.188704-20.718881 19.320021l-79.013565 26.331715 0 53.163827 79.013565 26.331715c9.376555 3.131317 16.938788 10.17678 20.718881 19.320021l19.61985 47.384194c3.781116 9.126868 3.414773 19.453051-0.99977 28.297486l-37.241182 74.482365 37.591153 37.591153 74.482365-37.241182c8.860808-4.429893 19.170618-4.797259 28.297486-0.99977l47.384194 19.61985c9.144264 3.781116 16.188704 11.342326 19.320021 20.718881L485.417575 853.101725z" fill="#221E1F" /><path d="M512 648.440485c-75.232448 0-136.440485-61.208037-136.440485-136.440485s61.208037-136.440485 136.440485-136.440485 136.440485 61.208037 136.440485 136.440485S587.232448 648.440485 512 648.440485zM512 443.779246c-37.624922 0-68.220754 30.595832-68.220754 68.220754s30.595832 68.220754 68.220754 68.220754 68.220754-30.595832 68.220754-68.220754S549.623899 443.779246 512 443.779246z" fill="#221E1F" /></svg>