<?xml version="1.0" standalone="no"?><!DOCTYPE svg PUBLIC "-//W3C//DTD SVG 1.1//EN" "http://www.w3.org/Graphics/SVG/1.1/DTD/svg11.dtd"><svg class="icon" width="200px" height="195.42px" viewBox="0 0 1048 1024" version="1.1" xmlns="http://www.w3.org/2000/svg"><path d="M435.151238 33.938286L112.39619 356.59581c-147.382857 147.358476-145.017905 391.484952 3.462096 539.964952 148.48 148.48 392.606476 150.820571 539.940571 3.462095l322.706286-322.706286a30.47619 30.47619 0 0 0 0-43.105523l-156.793905-156.818286a30.47619 30.47619 0 0 0-43.105524 0L455.899429 700.099048c-36.742095 36.790857-101.546667 35.108571-140.092953-3.462096-38.521905-38.521905-40.228571-103.375238-3.486476-140.117333L635.050667 233.837714a30.47619 30.47619 0 0 0 0-43.105524l-156.818286-156.793904a30.47619 30.47619 0 0 0-43.081143 0z m21.528381 64.633904l113.712762 113.712762-301.177905 301.153524c-61.049905 61.074286-58.368 164.449524 3.486476 226.304l4.486096 4.315429c62.268952 57.660952 162.206476 58.806857 221.817904-0.853334L800.182857 442.026667l113.688381 113.712762-301.129143 301.177904c-123.367619 123.367619-328.874667 121.417143-453.729524-3.462095-124.879238-124.854857-126.854095-330.361905-3.462095-453.729524L456.655238 98.54781z" fill="#EDEFEE" /><path d="M387.657143 225.084952l104.984381 104.984381-43.105524 43.105524L344.551619 268.190476zM731.526095 568.978286l104.204191 104.20419-43.105524 43.105524-104.204191-104.228571zM974.189714 31.963429a30.47619 30.47619 0 0 1 52.540953 30.72l-1.682286 2.876952-157.257143 238.055619-45.860571-112.810667-102.473143 140.068572a30.47619 30.47619 0 0 1-39.814095 8.435809l-2.779429-1.828571a30.47619 30.47619 0 0 1-8.411429-39.814095l1.804191-2.779429 167.009524-228.230095 43.422476 106.837333 93.500952-141.531428z" fill="#EDEFEE" /></svg>