<?xml version="1.0" standalone="no"?><!DOCTYPE svg PUBLIC "-//W3C//DTD SVG 1.1//EN" "http://www.w3.org/Graphics/SVG/1.1/DTD/svg11.dtd"><svg class="icon" width="200px" height="200.00px" viewBox="0 0 1024 1024" version="1.1" xmlns="http://www.w3.org/2000/svg"><path d="M585.054853 58.296731C464.485847 26.086122 335.972914 77.912487 271.582395 184.709839c-65.479317 108.602464-50.057069 246.873644 38.429241 339.697749 9.402137 9.861602 21.344121 17.303085 37.788651 30.390147-24.344454 14.456247-39.390125 22.788006-53.831023 32.064276-87.789439 56.395428-148.120502 134.136-175.826518 234.854912-9.500375 34.534538-13.610996 71.125921-15.400758 107.017362-1.320065 26.493397 17.687848 44.370557 39.772842 46.208415 21.797445 1.811252 40.495296-13.800307 45.708018-40.197514 2.998287-15.172561 3.230578-30.876218 5.009084-46.306652 18.385742-159.552879 153.627936-278.884708 314.454832-277.526781 158.847821 1.342578 289.721521-129.643686 285.83705-286.075481C790.426267 200.069665 704.496176 90.205465 585.054853 58.296731zM511.823991 522.610662c-107.957781-0.134053-193.529715-85.705987-193.368032-193.361893 0.164752-107.964944 85.511559-193.030341 193.657628-193.019085 108.532879 0.010233 192.922894 84.542488 192.988386 193.311751C705.168488 437.896258 620.227933 522.744715 511.823991 522.610662z"  /><path d="M921.113725 905.298528c-2.535753-83.050508-46.75179-187.04093-106.72879-247.914346-6.007831-6.096858-11.869329-12.941753-19.145036-17.062608-18.11866-10.266831-39.193651-11.68411-50.981115 5.903453-8.142447 12.146645-9.249665 31.630395-7.254218 47.026036 1.324158 10.204409 13.522991 19.11536 21.144576 28.366048 34.478256 41.84913 58.511625 88.893586 68.711941 142.264121 4.502547 23.556509 5.480828 47.767933 9.491165 71.440076 4.305049 25.412786 23.979134 42.72201 45.465494 39.461757 22.598694-3.432169 37.399795-16.567327 39.193651-40.792055C921.644821 925.453566 921.113725 916.827095 921.113725 905.298528z"  /></svg>