<?xml version="1.0" standalone="no"?><!DOCTYPE svg PUBLIC "-//W3C//DTD SVG 1.1//EN" "http://www.w3.org/Graphics/SVG/1.1/DTD/svg11.dtd"><svg class="icon" width="200px" height="199.03px" viewBox="0 0 1029 1024" version="1.1" xmlns="http://www.w3.org/2000/svg"><path d="M640 469.333333c-25.6 0-42.666667-17.066667-42.666667-42.666666s17.066667-42.666667 42.666667-42.666667 42.666667 17.066667 42.666667 42.666667-17.066667 42.666667-42.666667 42.666666z m-85.333333 298.666667c-25.6 0-42.666667-17.066667-42.666667-42.666667s17.066667-42.666667 42.666667-42.666666 42.666667 17.066667 42.666666 42.666666-17.066667 42.666667-42.666666 42.666667z m-256-213.333333c-25.6 0-42.666667-17.066667-42.666667-42.666667s17.066667-42.666667 42.666667-42.666667 42.666667 17.066667 42.666666 42.666667-17.066667 42.666667-42.666666 42.666667z m-170.666667 29.866666L12.8 435.2c-17.066667-17.066667-17.066667-51.2 4.266667-64 4.266667-4.266667 8.533333-8.533333 17.066666-8.533333l260.266667-76.8c12.8-4.266667 21.333333-8.533333 25.6-17.066667L473.6 42.666667c12.8-21.333333 42.666667-25.6 68.266667-12.8l12.8 12.8 153.6 226.133333c4.266667 8.533333 17.066667 17.066667 25.6 17.066667l260.266666 76.8c25.6 8.533333 38.4 34.133333 34.133334 59.733333 0 4.266667-4.266667 12.8-8.533334 17.066667l-46.933333 59.733333-247.466667-68.266667V426.666667c0-46.933333-38.4-85.333333-85.333333-85.333334s-85.333333 38.4-85.333333 85.333334c0 29.866667 17.066667 59.733333 42.666666 72.533333l-38.4 140.8H554.666667c-17.066667 0-34.133333 4.266667-51.2 17.066667l-128-106.666667c4.266667-12.8 8.533333-25.6 8.533333-38.4 0-46.933333-38.4-85.333333-85.333333-85.333333s-85.333333 38.4-85.333334 85.333333c0 8.533333 0 17.066667 4.266667 21.333333L128 584.533333z m25.6 34.133334l85.333333-46.933334c12.8 17.066667 34.133333 25.6 59.733334 25.6 17.066667 0 34.133333-4.266667 46.933333-12.8l132.266667 106.666667c-4.266667 8.533333-8.533333 21.333333-8.533334 34.133333 0 46.933333 38.4 85.333333 85.333334 85.333334s85.333333-38.4 85.333333-85.333334c0-29.866667-17.066667-55.466667-38.4-72.533333L640 512h4.266667c29.866667 0 59.733333-17.066667 72.533333-42.666667l226.133333 59.733334-93.866666 119.466666c-8.533333 8.533333-8.533333 21.333333-8.533334 29.866667l8.533334 273.066667c0 25.6-21.333333 46.933333-46.933334 51.2-4.266667 0-12.8 0-17.066666-4.266667l-256-93.866667c-8.533333-4.266667-21.333333-4.266667-34.133334 0l-256 93.866667c-25.6 8.533333-51.2-4.266667-59.733333-29.866667 0-4.266667-4.266667-12.8-4.266667-17.066666l12.8-268.8c0-12.8-4.266667-21.333333-8.533333-29.866667l-25.6-34.133333z" /></svg>